<svg width="557" height="557" viewBox="0 0 557 557" fill="none" xmlns="http://www.w3.org/2000/svg">
<g clip-path="url(#clip0_88_142)">
<path d="M425.764 0H130.336C58.3533 0 0 58.3533 0 130.336V425.764C0 497.746 58.3533 556.1 130.336 556.1H425.764C497.746 556.1 556.1 497.746 556.1 425.764V130.336C556.1 58.3533 497.746 0 425.764 0Z" fill="url(#paint0_linear_88_142)"/>
<path opacity="0.25" d="M413.632 104.365H247.127C240.558 104.365 235.233 109.69 235.233 116.258C235.233 122.827 240.558 128.151 247.127 128.151H413.632C420.2 128.151 425.525 122.827 425.525 116.258C425.525 109.69 420.2 104.365 413.632 104.365Z" fill="white"/>
<path opacity="0.2" d="M168.447 154.317C189.466 154.317 206.506 137.278 206.506 116.259C206.506 95.2395 189.466 78.2001 168.447 78.2001C147.428 78.2001 130.389 95.2395 130.389 116.259C130.389 137.278 147.428 154.317 168.447 154.317Z" fill="white"/>
<path opacity="0.2" d="M168.447 306.639C189.466 306.639 206.506 289.6 206.506 268.58C206.506 247.561 189.466 230.522 168.447 230.522C147.428 230.522 130.389 247.561 130.389 268.58C130.389 289.6 147.428 306.639 168.447 306.639Z" fill="white"/>
<path opacity="0.25" d="M375.573 256.687H247.127C240.558 256.687 235.233 262.012 235.233 268.58C235.233 275.148 240.558 280.473 247.127 280.473H375.573C382.142 280.473 387.466 275.148 387.466 268.58C387.466 262.012 382.142 256.687 375.573 256.687Z" fill="white"/>
<path opacity="0.18" d="M168.627 477.899C200.156 477.899 225.715 452.34 225.715 420.811C225.715 389.283 200.156 363.724 168.627 363.724C137.099 363.724 111.54 389.283 111.54 420.811C111.54 452.34 137.099 477.899 168.627 477.899Z" fill="white"/>
<path opacity="0.95" d="M168.63 458.869C189.649 458.869 206.688 441.83 206.688 420.811C206.688 399.792 189.649 382.752 168.63 382.752C147.611 382.752 130.571 399.792 130.571 420.811C130.571 441.83 147.611 458.869 168.63 458.869Z" fill="white"/>
<path d="M168.635 437.936C178.094 437.936 185.762 430.268 185.762 420.81C185.762 411.351 178.094 403.683 168.635 403.683C159.177 403.683 151.509 411.351 151.509 420.81C151.509 430.268 159.177 437.936 168.635 437.936Z" fill="#524CE7"/>
<path opacity="0.95" d="M432.661 397.024H247.127C240.558 397.024 235.233 402.349 235.233 408.918C235.233 415.486 240.558 420.811 247.127 420.811H432.661C439.229 420.811 444.554 415.486 444.554 408.918C444.554 402.349 439.229 397.024 432.661 397.024Z" fill="white"/>
<path opacity="0.55" d="M368.437 439.84H244.748C239.493 439.84 235.233 444.099 235.233 449.354C235.233 454.609 239.493 458.869 244.748 458.869H368.437C373.692 458.869 377.952 454.609 377.952 449.354C377.952 444.099 373.692 439.84 368.437 439.84Z" fill="white"/>
<path opacity="0.2" d="M176.623 231.363C174.046 230.812 171.372 230.519 168.63 230.519C165.889 230.519 163.216 230.811 160.64 231.362V153.725C163.229 154.216 165.9 154.482 168.632 154.482C171.364 154.482 174.034 154.216 176.623 153.725V231.363Z" fill="white"/>
<path opacity="0.2" d="M176.623 364.287C174.046 363.871 171.372 363.651 168.63 363.651C165.889 363.651 163.216 363.871 160.64 364.286V305.661C163.229 306.032 165.9 306.233 168.632 306.233C171.364 306.233 174.034 306.032 176.623 305.661V364.287Z" fill="white"/>
</g>
<defs>
<linearGradient id="paint0_linear_88_142" x1="0" y1="0" x2="556.1" y2="556.1" gradientUnits="userSpaceOnUse">
<stop stop-color="#7B77F0"/>
<stop offset="1" stop-color="#3A35C8"/>
</linearGradient>
<clipPath id="clip0_88_142">
<rect width="556.1" height="556.1" fill="white"/>
</clipPath>
</defs>
</svg>
